<svg xmlns="http://www.w3.org/2000/svg" width="165" height="140" viewBox="0 0 165 140" fill="none"><path d="M165 85.2945V55.123C165 24.7427 139.917 0 109.118 0C99.4868 0 90.3848 2.40119 82.4471 6.68158C74.6151 2.40119 65.5132 0 55.882 0C25.0834 0 0 24.7427 0 55.123V85.2945V140H53.236H111.764H165V85.2945ZM111.764 134.78V85.2945C111.764 72.2446 122.559 61.5958 135.789 61.5958C149.019 61.5958 159.708 72.1402 159.814 85.1901V134.676H111.764V134.78ZM109.118 5.21998C137.059 5.21998 159.708 27.6659 159.708 55.123V68.7994C154.416 61.387 145.632 56.4802 135.683 56.4802C125.734 56.4802 116.95 61.387 111.658 68.7994V55.123C111.658 36.4355 102.133 19.8359 87.6331 9.91797C94.3008 6.89038 101.498 5.21998 109.118 5.21998ZM5.18601 55.123C5.18601 27.5615 27.941 5.21998 55.7761 5.21998C63.3964 5.21998 70.5933 6.89038 77.1552 9.91797C62.6555 19.9403 53.1302 36.4355 53.1302 55.123V68.7994C47.8384 61.387 39.0539 56.4802 29.1052 56.4802C19.1565 56.4802 10.372 61.387 5.08017 68.7994V55.123H5.18601ZM53.236 134.78H5.29185V85.2945C5.29185 72.2446 16.0872 61.5958 29.3169 61.5958C42.5465 61.5958 53.3419 72.2446 53.3419 85.2945V134.78H53.236ZM58.5279 85.2945V55.123C58.5279 37.2707 68.1591 21.5063 82.5529 12.6324C96.9468 21.4019 106.578 37.1663 106.578 55.123V85.2945V134.78H58.6337V85.2945H58.5279Z" fill="#C49A50"></path></svg>